<mxfile host="65bd71144e">
    <diagram id="O8ojihGDu8im6FqFh57M" name="Page-1">
        <mxGraphModel dx="883" dy="728" grid="1" gridSize="10" guides="1" tooltips="1" connect="1" arrows="1" fold="1" page="1" pageScale="1" pageWidth="850" pageHeight="1100" math="0" shadow="0">
            <root>
                <mxCell id="0"/>
                <mxCell id="1" parent="0"/>
                <mxCell id="2" value="" style="rounded=0;whiteSpace=wrap;html=1;" vertex="1" parent="1">
                    <mxGeometry x="350" y="210" width="120" height="40" as="geometry"/>
                </mxCell>
                <mxCell id="3" value="0010x" style="text;html=1;strokeColor=none;fillColor=none;align=center;verticalAlign=middle;whiteSpace=wrap;rounded=0;" vertex="1" parent="1">
                    <mxGeometry x="390" y="180" width="40" height="20" as="geometry"/>
                </mxCell>
                <mxCell id="4" value="" style="shape=flexArrow;endArrow=classic;html=1;" edge="1" parent="1">
                    <mxGeometry width="50" height="50" relative="1" as="geometry">
                        <mxPoint x="230" y="190" as="sourcePoint"/>
                        <mxPoint x="380" y="189.5" as="targetPoint"/>
                        <Array as="points">
                            <mxPoint x="360" y="189.5"/>
                        </Array>
                    </mxGeometry>
                </mxCell>
                <mxCell id="5" value="" style="rounded=0;whiteSpace=wrap;html=1;" vertex="1" parent="1">
                    <mxGeometry x="260" y="390" width="120" height="40" as="geometry"/>
                </mxCell>
                <mxCell id="6" value="0011x" style="text;html=1;strokeColor=none;fillColor=none;align=center;verticalAlign=middle;whiteSpace=wrap;rounded=0;" vertex="1" parent="1">
                    <mxGeometry x="500" y="180" width="40" height="20" as="geometry"/>
                </mxCell>
                <mxCell id="7" value="" style="rounded=0;whiteSpace=wrap;html=1;fillColor=#333333;" vertex="1" parent="1">
                    <mxGeometry x="470" y="210" width="120" height="40" as="geometry"/>
                </mxCell>
                <mxCell id="9" value="" style="rounded=0;whiteSpace=wrap;html=1;" vertex="1" parent="1">
                    <mxGeometry x="380" y="390" width="120" height="40" as="geometry"/>
                </mxCell>
                <mxCell id="10" value="" style="rounded=0;whiteSpace=wrap;html=1;" vertex="1" parent="1">
                    <mxGeometry x="252.5" y="600" width="120" height="40" as="geometry"/>
                </mxCell>
                <mxCell id="11" value="" style="shape=flexArrow;endArrow=classic;html=1;" edge="1" parent="1">
                    <mxGeometry width="50" height="50" relative="1" as="geometry">
                        <mxPoint x="10" y="490" as="sourcePoint"/>
                        <mxPoint x="60" y="440" as="targetPoint"/>
                    </mxGeometry>
                </mxCell>
                <mxCell id="12" value="" style="rounded=0;whiteSpace=wrap;html=1;" vertex="1" parent="1">
                    <mxGeometry x="372.5" y="600" width="120" height="40" as="geometry"/>
                </mxCell>
                <mxCell id="13" value="" style="rounded=0;whiteSpace=wrap;html=1;" vertex="1" parent="1">
                    <mxGeometry x="492.5" y="600" width="120" height="40" as="geometry"/>
                </mxCell>
                <mxCell id="14" value="" style="rounded=0;whiteSpace=wrap;html=1;" vertex="1" parent="1">
                    <mxGeometry x="612.5" y="600" width="120" height="40" as="geometry"/>
                </mxCell>
                <mxCell id="20" value="" style="shape=flexArrow;endArrow=classic;startArrow=classic;html=1;" edge="1" parent="1">
                    <mxGeometry width="100" height="100" relative="1" as="geometry">
                        <mxPoint x="600" y="239.5" as="sourcePoint"/>
                        <mxPoint x="670" y="239.5" as="targetPoint"/>
                    </mxGeometry>
                </mxCell>
                <mxCell id="21" value="0012x" style="text;html=1;strokeColor=none;fillColor=none;align=center;verticalAlign=middle;whiteSpace=wrap;rounded=0;" vertex="1" parent="1">
                    <mxGeometry x="120" y="550" width="40" height="20" as="geometry"/>
                </mxCell>
                <mxCell id="22" value="&lt;div style=&quot;color: rgb(212 , 212 , 212) ; background-color: rgb(30 , 30 , 30) ; font-family: &amp;#34;droid sans mono&amp;#34; , monospace , monospace , &amp;#34;droid sans fallback&amp;#34; ; font-weight: normal ; font-size: 14px ; line-height: 19px&quot;&gt;&lt;div&gt;&lt;span style=&quot;color: #d4d4d4&quot;&gt;***&lt;/span&gt;&lt;span style=&quot;color: #9cdcfe&quot;&gt;array_ptr&lt;/span&gt;&lt;span style=&quot;color: #d4d4d4&quot;&gt; = &lt;/span&gt;&lt;span style=&quot;color: #c586c0&quot;&gt;new&lt;/span&gt;&lt;span style=&quot;color: #d4d4d4&quot;&gt; &lt;/span&gt;&lt;span style=&quot;color: #569cd6&quot;&gt;unsigned&lt;/span&gt;&lt;span style=&quot;color: #d4d4d4&quot;&gt; &lt;/span&gt;&lt;span style=&quot;color: #569cd6&quot;&gt;int&lt;/span&gt;&lt;span style=&quot;color: #d4d4d4&quot;&gt; **[&lt;/span&gt;&lt;span style=&quot;color: #9cdcfe&quot;&gt;x_size&lt;/span&gt;&lt;span style=&quot;color: #d4d4d4&quot;&gt;];&lt;/span&gt;&lt;/div&gt;&lt;div&gt;&lt;span style=&quot;color: #d4d4d4&quot;&gt;for eg . x-size =2&lt;/span&gt;&lt;/div&gt;&lt;/div&gt;" style="text;whiteSpace=wrap;html=1;" vertex="1" parent="1">
                    <mxGeometry x="345" width="390" height="30" as="geometry"/>
                </mxCell>
                <mxCell id="23" value="&lt;div style=&quot;color: rgb(212 , 212 , 212) ; background-color: rgb(30 , 30 , 30) ; font-family: &amp;#34;droid sans mono&amp;#34; , monospace , monospace , &amp;#34;droid sans fallback&amp;#34; ; font-weight: normal ; font-size: 14px ; line-height: 19px&quot;&gt;&lt;div&gt;&lt;span style=&quot;color: #569cd6&quot;&gt;unsigned&lt;/span&gt;&lt;span style=&quot;color: #d4d4d4&quot;&gt; &lt;/span&gt;&lt;span style=&quot;color: #569cd6&quot;&gt;int&lt;/span&gt;&lt;span style=&quot;color: #d4d4d4&quot;&gt; **&lt;/span&gt;&lt;span style=&quot;color: #9cdcfe&quot;&gt;x_pointer&lt;/span&gt;&lt;span style=&quot;color: #d4d4d4&quot;&gt; = &lt;/span&gt;&lt;span style=&quot;color: #c586c0&quot;&gt;new&lt;/span&gt;&lt;span style=&quot;color: #d4d4d4&quot;&gt; &lt;/span&gt;&lt;span style=&quot;color: #569cd6&quot;&gt;unsigned&lt;/span&gt;&lt;span style=&quot;color: #d4d4d4&quot;&gt; &lt;/span&gt;&lt;span style=&quot;color: #569cd6&quot;&gt;int&lt;/span&gt;&lt;span style=&quot;color: #d4d4d4&quot;&gt;*[&lt;/span&gt;&lt;span style=&quot;color: #9cdcfe&quot;&gt;y_size&lt;/span&gt;&lt;span style=&quot;color: #d4d4d4&quot;&gt;];&lt;/span&gt;&lt;/div&gt;&lt;div&gt;&lt;span style=&quot;color: #d4d4d4&quot;&gt;for eg. y_size = 3&lt;/span&gt;&lt;/div&gt;&lt;/div&gt;" style="text;whiteSpace=wrap;html=1;" vertex="1" parent="1">
                    <mxGeometry x="345" y="70" width="470" height="30" as="geometry"/>
                </mxCell>
                <mxCell id="24" value="&lt;meta charset=&quot;utf-8&quot;&gt;&lt;div style=&quot;color: rgb(212, 212, 212); background-color: rgb(30, 30, 30); font-family: &amp;quot;droid sans mono&amp;quot;, monospace, monospace, &amp;quot;droid sans fallback&amp;quot;; font-weight: normal; font-size: 14px; line-height: 19px;&quot;&gt;&lt;div&gt;&lt;span style=&quot;color: #c586c0&quot;&gt;for&lt;/span&gt;&lt;span style=&quot;color: #d4d4d4&quot;&gt;(&lt;/span&gt;&lt;span style=&quot;color: #569cd6&quot;&gt;int&lt;/span&gt;&lt;span style=&quot;color: #d4d4d4&quot;&gt; &lt;/span&gt;&lt;span style=&quot;color: #9cdcfe&quot;&gt;i&lt;/span&gt;&lt;span style=&quot;color: #d4d4d4&quot;&gt; = &lt;/span&gt;&lt;span style=&quot;color: #b5cea8&quot;&gt;0&lt;/span&gt;&lt;span style=&quot;color: #d4d4d4&quot;&gt;; &lt;/span&gt;&lt;span style=&quot;color: #9cdcfe&quot;&gt;i&lt;/span&gt;&lt;span style=&quot;color: #d4d4d4&quot;&gt; &amp;lt; &lt;/span&gt;&lt;span style=&quot;color: #9cdcfe&quot;&gt;x_size&lt;/span&gt;&lt;span style=&quot;color: #d4d4d4&quot;&gt;; &lt;/span&gt;&lt;span style=&quot;color: #9cdcfe&quot;&gt;i&lt;/span&gt;&lt;span style=&quot;color: #d4d4d4&quot;&gt;++) {&lt;/span&gt;&lt;/div&gt;&lt;/div&gt;" style="text;whiteSpace=wrap;html=1;" vertex="1" parent="1">
                    <mxGeometry x="345" y="50" width="300" height="30" as="geometry"/>
                </mxCell>
                <mxCell id="25" value="&lt;meta charset=&quot;utf-8&quot;&gt;&lt;div style=&quot;color: rgb(212, 212, 212); background-color: rgb(30, 30, 30); font-family: &amp;quot;droid sans mono&amp;quot;, monospace, monospace, &amp;quot;droid sans fallback&amp;quot;; font-weight: normal; font-size: 14px; line-height: 19px;&quot;&gt;&lt;div&gt;&lt;span style=&quot;color: #9cdcfe&quot;&gt;array_ptr&lt;/span&gt;&lt;span style=&quot;color: #d4d4d4&quot;&gt;[&lt;/span&gt;&lt;span style=&quot;color: #9cdcfe&quot;&gt;i&lt;/span&gt;&lt;span style=&quot;color: #d4d4d4&quot;&gt;] = &lt;/span&gt;&lt;span style=&quot;color: #9cdcfe&quot;&gt;x_pointer&lt;/span&gt;&lt;span style=&quot;color: #d4d4d4&quot;&gt;;&lt;/span&gt;&lt;/div&gt;&lt;/div&gt;" style="text;whiteSpace=wrap;html=1;" vertex="1" parent="1">
                    <mxGeometry x="345" y="110" width="240" height="30" as="geometry"/>
                </mxCell>
                <mxCell id="26" value="" style="rounded=0;whiteSpace=wrap;html=1;" vertex="1" parent="1">
                    <mxGeometry x="500" y="390" width="120" height="40" as="geometry"/>
                </mxCell>
                <mxCell id="28" value="" style="shape=flexArrow;endArrow=classic;startArrow=classic;html=1;" edge="1" parent="1">
                    <mxGeometry width="100" height="100" relative="1" as="geometry">
                        <mxPoint x="620" y="409.5" as="sourcePoint"/>
                        <mxPoint x="690" y="409.5" as="targetPoint"/>
                        <Array as="points">
                            <mxPoint x="660" y="410"/>
                        </Array>
                    </mxGeometry>
                </mxCell>
                <mxCell id="29" value="&lt;span style=&quot;font-family: &amp;#34;droid sans mono&amp;#34; , monospace , monospace , &amp;#34;droid sans fallback&amp;#34; ; font-size: 14px ; font-style: normal ; font-weight: 400 ; letter-spacing: normal ; text-align: left ; text-indent: 0px ; text-transform: none ; word-spacing: 0px ; background-color: rgb(30 , 30 , 30) ; color: rgb(156 , 220 , 254)&quot;&gt;array_ptr&lt;/span&gt;&lt;span style=&quot;color: rgb(212 , 212 , 212) ; font-family: &amp;#34;droid sans mono&amp;#34; , monospace , monospace , &amp;#34;droid sans fallback&amp;#34; ; font-size: 14px ; font-style: normal ; font-weight: 400 ; letter-spacing: normal ; text-align: left ; text-indent: 0px ; text-transform: none ; word-spacing: 0px ; background-color: rgb(30 , 30 , 30)&quot;&gt;[&lt;/span&gt;&lt;span style=&quot;font-family: &amp;#34;droid sans mono&amp;#34; , monospace , monospace , &amp;#34;droid sans fallback&amp;#34; ; font-size: 14px ; font-style: normal ; font-weight: 400 ; letter-spacing: normal ; text-align: left ; text-indent: 0px ; text-transform: none ; word-spacing: 0px ; background-color: rgb(30 , 30 , 30)&quot;&gt;&lt;font color=&quot;#9cdcfe&quot;&gt;0&lt;/font&gt;&lt;/span&gt;&lt;span style=&quot;color: rgb(212 , 212 , 212) ; font-family: &amp;#34;droid sans mono&amp;#34; , monospace , monospace , &amp;#34;droid sans fallback&amp;#34; ; font-size: 14px ; font-style: normal ; font-weight: 400 ; letter-spacing: normal ; text-align: left ; text-indent: 0px ; text-transform: none ; word-spacing: 0px ; background-color: rgb(30 , 30 , 30)&quot;&gt;]=0010x&lt;/span&gt;" style="text;whiteSpace=wrap;html=1;" vertex="1" parent="1">
                    <mxGeometry x="30" y="180" width="160" height="30" as="geometry"/>
                </mxCell>
                <mxCell id="30" value="&lt;span style=&quot;font-family: &amp;#34;droid sans mono&amp;#34; , monospace , monospace , &amp;#34;droid sans fallback&amp;#34; ; font-size: 14px ; font-style: normal ; font-weight: 400 ; letter-spacing: normal ; text-align: left ; text-indent: 0px ; text-transform: none ; word-spacing: 0px ; background-color: rgb(30 , 30 , 30) ; color: rgb(156 , 220 , 254)&quot;&gt;array_ptr&lt;/span&gt;&lt;span style=&quot;color: rgb(212 , 212 , 212) ; font-family: &amp;#34;droid sans mono&amp;#34; , monospace , monospace , &amp;#34;droid sans fallback&amp;#34; ; font-size: 14px ; font-style: normal ; font-weight: 400 ; letter-spacing: normal ; text-align: left ; text-indent: 0px ; text-transform: none ; word-spacing: 0px ; background-color: rgb(30 , 30 , 30)&quot;&gt;[&lt;/span&gt;&lt;span style=&quot;font-family: &amp;#34;droid sans mono&amp;#34; , monospace , monospace , &amp;#34;droid sans fallback&amp;#34; ; font-size: 14px ; font-style: normal ; font-weight: 400 ; letter-spacing: normal ; text-align: left ; text-indent: 0px ; text-transform: none ; word-spacing: 0px ; background-color: rgb(30 , 30 , 30)&quot;&gt;&lt;font color=&quot;#9cdcfe&quot;&gt;1&lt;/font&gt;&lt;/span&gt;&lt;span style=&quot;color: rgb(212 , 212 , 212) ; font-family: &amp;#34;droid sans mono&amp;#34; , monospace , monospace , &amp;#34;droid sans fallback&amp;#34; ; font-size: 14px ; font-style: normal ; font-weight: 400 ; letter-spacing: normal ; text-align: left ; text-indent: 0px ; text-transform: none ; word-spacing: 0px ; background-color: rgb(30 , 30 , 30)&quot;&gt;]=0011x&lt;/span&gt;" style="text;whiteSpace=wrap;html=1;" vertex="1" parent="1">
                    <mxGeometry x="30" y="200" width="160" height="30" as="geometry"/>
                </mxCell>
                <mxCell id="31" value="0012x" style="text;html=1;strokeColor=none;fillColor=none;align=center;verticalAlign=middle;whiteSpace=wrap;rounded=0;" vertex="1" parent="1">
                    <mxGeometry x="290" y="370" width="40" height="20" as="geometry"/>
                </mxCell>
                <mxCell id="32" value="0013x" style="text;html=1;strokeColor=none;fillColor=none;align=center;verticalAlign=middle;whiteSpace=wrap;rounded=0;" vertex="1" parent="1">
                    <mxGeometry x="410" y="370" width="40" height="20" as="geometry"/>
                </mxCell>
                <mxCell id="33" value="0014x" style="text;html=1;strokeColor=none;fillColor=none;align=center;verticalAlign=middle;whiteSpace=wrap;rounded=0;" vertex="1" parent="1">
                    <mxGeometry x="530" y="370" width="40" height="20" as="geometry"/>
                </mxCell>
                <mxCell id="34" value="&lt;div style=&quot;color: rgb(212 , 212 , 212) ; background-color: rgb(30 , 30 , 30) ; font-family: &amp;#34;droid sans mono&amp;#34; , monospace , monospace , &amp;#34;droid sans fallback&amp;#34; ; font-weight: normal ; font-size: 14px ; line-height: 19px&quot;&gt;&lt;div&gt;&lt;span style=&quot;color: #d4d4d4&quot;&gt; &lt;/span&gt;&lt;span style=&quot;color: #c586c0&quot;&gt;for&lt;/span&gt;&lt;span style=&quot;color: #d4d4d4&quot;&gt;(&lt;/span&gt;&lt;span style=&quot;color: #569cd6&quot;&gt;int&lt;/span&gt;&lt;span style=&quot;color: #d4d4d4&quot;&gt; &lt;/span&gt;&lt;span style=&quot;color: #9cdcfe&quot;&gt;j&lt;/span&gt;&lt;span style=&quot;color: #d4d4d4&quot;&gt; = &lt;/span&gt;&lt;span style=&quot;color: #b5cea8&quot;&gt;0&lt;/span&gt;&lt;span style=&quot;color: #d4d4d4&quot;&gt;; &lt;/span&gt;&lt;span style=&quot;color: #9cdcfe&quot;&gt;j&lt;/span&gt;&lt;span style=&quot;color: #d4d4d4&quot;&gt; &amp;lt; &lt;/span&gt;&lt;span style=&quot;color: #9cdcfe&quot;&gt;y_size&lt;/span&gt;&lt;span style=&quot;color: #d4d4d4&quot;&gt;; &lt;/span&gt;&lt;span style=&quot;color: #9cdcfe&quot;&gt;j&lt;/span&gt;&lt;span style=&quot;color: #d4d4d4&quot;&gt;++) {&lt;/span&gt;&lt;/div&gt;&lt;div&gt;&lt;span style=&quot;color: #d4d4d4&quot;&gt;            &lt;/span&gt;&lt;span style=&quot;color: #569cd6&quot;&gt;unsigned&lt;/span&gt;&lt;span style=&quot;color: #d4d4d4&quot;&gt; &lt;/span&gt;&lt;span style=&quot;color: #569cd6&quot;&gt;int&lt;/span&gt;&lt;span style=&quot;color: #d4d4d4&quot;&gt; *&lt;/span&gt;&lt;span style=&quot;color: #9cdcfe&quot;&gt;y_pointer&lt;/span&gt;&lt;span style=&quot;color: #d4d4d4&quot;&gt; = &lt;/span&gt;&lt;span style=&quot;color: #c586c0&quot;&gt;new&lt;/span&gt;&lt;span style=&quot;color: #d4d4d4&quot;&gt; &lt;/span&gt;&lt;span style=&quot;color: #569cd6&quot;&gt;unsigned&lt;/span&gt;&lt;span style=&quot;color: #d4d4d4&quot;&gt; &lt;/span&gt;&lt;span style=&quot;color: #569cd6&quot;&gt;int&lt;/span&gt;&lt;span style=&quot;color: #d4d4d4&quot;&gt;[&lt;/span&gt;&lt;span style=&quot;color: #9cdcfe&quot;&gt;z_size&lt;/span&gt;&lt;span style=&quot;color: #d4d4d4&quot;&gt;];&lt;/span&gt;&lt;/div&gt;&lt;div&gt;&lt;span style=&quot;color: #d4d4d4&quot;&gt;for eg. z-size = 4&lt;/span&gt;&lt;/div&gt;&lt;div&gt;&lt;span style=&quot;color: #d4d4d4&quot;&gt;            &lt;/span&gt;&lt;span style=&quot;color: #9cdcfe&quot;&gt;x_pointer&lt;/span&gt;&lt;span style=&quot;color: #d4d4d4&quot;&gt;[&lt;/span&gt;&lt;span style=&quot;color: #9cdcfe&quot;&gt;j&lt;/span&gt;&lt;span style=&quot;color: #d4d4d4&quot;&gt;] = &lt;/span&gt;&lt;span style=&quot;color: #9cdcfe&quot;&gt;y_pointer&lt;/span&gt;&lt;span style=&quot;color: #d4d4d4&quot;&gt;;&lt;/span&gt;&lt;/div&gt;&lt;/div&gt;" style="text;whiteSpace=wrap;html=1;" vertex="1" parent="1">
                    <mxGeometry x="260" y="280" width="460" height="70" as="geometry"/>
                </mxCell>
                <mxCell id="36" value="&lt;meta charset=&quot;utf-8&quot;&gt;&lt;div style=&quot;color: rgb(212, 212, 212); background-color: rgb(30, 30, 30); font-family: &amp;quot;droid sans mono&amp;quot;, monospace, monospace, &amp;quot;droid sans fallback&amp;quot;; font-weight: normal; font-size: 14px; line-height: 19px;&quot;&gt;&lt;div&gt;&lt;span style=&quot;color: #c586c0&quot;&gt;for&lt;/span&gt;&lt;span style=&quot;color: #d4d4d4&quot;&gt;(&lt;/span&gt;&lt;span style=&quot;color: #569cd6&quot;&gt;int&lt;/span&gt;&lt;span style=&quot;color: #d4d4d4&quot;&gt; &lt;/span&gt;&lt;span style=&quot;color: #9cdcfe&quot;&gt;k&lt;/span&gt;&lt;span style=&quot;color: #d4d4d4&quot;&gt; = &lt;/span&gt;&lt;span style=&quot;color: #b5cea8&quot;&gt;0&lt;/span&gt;&lt;span style=&quot;color: #d4d4d4&quot;&gt;; &lt;/span&gt;&lt;span style=&quot;color: #9cdcfe&quot;&gt;k&lt;/span&gt;&lt;span style=&quot;color: #d4d4d4&quot;&gt; &amp;lt; &lt;/span&gt;&lt;span style=&quot;color: #9cdcfe&quot;&gt;z_size&lt;/span&gt;&lt;span style=&quot;color: #d4d4d4&quot;&gt;; &lt;/span&gt;&lt;span style=&quot;color: #9cdcfe&quot;&gt;k&lt;/span&gt;&lt;span style=&quot;color: #d4d4d4&quot;&gt;++) {&lt;/span&gt;&lt;/div&gt;&lt;div&gt;&lt;span style=&quot;color: #d4d4d4&quot;&gt;                &lt;/span&gt;&lt;span style=&quot;color: #569cd6&quot;&gt;int&lt;/span&gt;&lt;span style=&quot;color: #d4d4d4&quot;&gt; &lt;/span&gt;&lt;span style=&quot;color: #9cdcfe&quot;&gt;random_number&lt;/span&gt;&lt;span style=&quot;color: #d4d4d4&quot;&gt; = &lt;/span&gt;&lt;span style=&quot;color: #dcdcaa&quot;&gt;rand&lt;/span&gt;&lt;span style=&quot;color: #d4d4d4&quot;&gt;() % &lt;/span&gt;&lt;span style=&quot;color: #9cdcfe&quot;&gt;r&lt;/span&gt;&lt;span style=&quot;color: #d4d4d4&quot;&gt;;&lt;/span&gt;&lt;/div&gt;&lt;div&gt;&lt;span style=&quot;color: #6a9955&quot;&gt;                //std::cout &amp;lt;&amp;lt; &quot;i: &quot; &amp;lt;&amp;lt; i &amp;lt;&amp;lt; &quot; j: &quot; &amp;lt;&amp;lt; j &amp;lt;&amp;lt; &quot; k: &quot; &amp;lt;&amp;lt; k &amp;lt;&amp;lt; std::endl;&lt;/span&gt;&lt;/div&gt;&lt;div&gt;&lt;span style=&quot;color: #d4d4d4&quot;&gt;                &lt;/span&gt;&lt;span style=&quot;color: #9cdcfe&quot;&gt;y_pointer&lt;/span&gt;&lt;span style=&quot;color: #d4d4d4&quot;&gt;[&lt;/span&gt;&lt;span style=&quot;color: #9cdcfe&quot;&gt;k&lt;/span&gt;&lt;span style=&quot;color: #d4d4d4&quot;&gt;] = &lt;/span&gt;&lt;span style=&quot;color: #9cdcfe&quot;&gt;random_number&lt;/span&gt;&lt;span style=&quot;color: #d4d4d4&quot;&gt;;&lt;/span&gt;&lt;/div&gt;&lt;/div&gt;" style="text;whiteSpace=wrap;html=1;" vertex="1" parent="1">
                    <mxGeometry x="260" y="470" width="550" height="110" as="geometry"/>
                </mxCell>
                <mxCell id="37" value="" style="shape=flexArrow;endArrow=classic;startArrow=classic;html=1;" edge="1" parent="1">
                    <mxGeometry width="100" height="100" relative="1" as="geometry">
                        <mxPoint x="737.5" y="619.5" as="sourcePoint"/>
                        <mxPoint x="807.5" y="619.5" as="targetPoint"/>
                        <Array as="points">
                            <mxPoint x="777.5" y="620"/>
                        </Array>
                    </mxGeometry>
                </mxCell>
            </root>
        </mxGraphModel>
    </diagram>
</mxfile>